<svg width="128" height="128" viewBox="0 0 128 128" fill="none" xmlns="http://www.w3.org/2000/svg">
<circle cx="64" cy="64" r="64" fill="#E6EFF6"/>
<path fill-rule="evenodd" clip-rule="evenodd" d="M91.4148 53.4769C83.4109 53.4769 76.9222 46.954 76.9222 38.9078C76.9222 35.1983 78.3039 31.8148 80.5748 29.2428C75.5176 28.5464 69.5535 28 63.2724 28C46.4637 28 31 32.1518 31 32.1518V59.0249V71.9635C31 86.3918 63.2711 108 63.2711 108C63.2711 108 95.5455 86.3865 95.5455 71.9635V59.0249V52.8733C94.2358 53.2636 92.8502 53.4769 91.4148 53.4769Z" fill="#0032A0"/>
<path fill-rule="evenodd" clip-rule="evenodd" d="M102.818 38.9091C102.818 44.9338 97.9338 49.8182 91.9091 49.8182C85.8837 49.8182 81 44.9338 81 38.9091C81 32.8844 85.8837 28 91.9091 28C97.9338 28 102.818 32.8844 102.818 38.9091Z" fill="#333333"/>
<path fill-rule="evenodd" clip-rule="evenodd" d="M98.2731 36.5823H93.3303V31.6362H89.5835V36.5823H84.6367V40.3259H89.5835V45.2726H93.3303V40.3259H98.2731V36.5823Z" fill="white"/>
<path fill-rule="evenodd" clip-rule="evenodd" d="M63.8349 80.7061L71.8754 83.4544L71.6969 82.1854L65.5167 77.9566C65.5167 77.9566 67.0021 63.3789 66.8269 63.3235L83.7266 68.6884V65.9063L67.0304 54.4625C66.9784 43.6597 65.5852 40.7356 63.8626 40.7271C62.1453 40.7141 60.7277 43.6246 60.5657 54.4274L43.7266 65.6464V68.4142L60.679 63.2747L61.8469 77.9266L55.6258 82.0858L55.4342 83.3521L63.8349 80.7061Z" fill="white"/>
</svg>
