<svg width="34" height="38" viewBox="0 0 34 38" fill="none" xmlns="http://www.w3.org/2000/svg">
<path d="M25 1V9M9 1V9M1 17H33M9 23V31M17 23V31M25 23V31M1 9C1 7.93913 1.42143 6.92172 2.17157 6.17157C2.92172 5.42143 3.93913 5 5 5H29C30.0609 5 31.0783 5.42143 31.8284 6.17157C32.5786 6.92172 33 7.93913 33 9V33C33 34.0609 32.5786 35.0783 31.8284 35.8284C31.0783 36.5786 30.0609 37 29 37H5C3.93913 37 2.92172 36.5786 2.17157 35.8284C1.42143 35.0783 1 34.0609 1 33V9Z" stroke="black" stroke-width="2" stroke-linecap="round" stroke-linejoin="round"/>
</svg>
